:FULLY-SPECIFIED
:FORCE-ALL-JOINTS-BE-3DOF
:DEGREES
130
root 8.92143 16.2778 -18.818 5.43423 7.23222 2.83629
lfemur 16.4068 5.52724 -19.3433
ltibia 26.7314 0 0
lfoot 3.90986 2.74389 0
ltoes -3.88483 0 0
rfemur -42.4731 2.63035 16.1816
rtibia 42.1273 0 0
rfoot -12.7885 -5.43082 0
rtoes -14.8477 0 0
lowerback -6.31731 -3.77123 -3.38038
upperback -1.21303 -4.84984 2.65398
thorax 2.70751 -2.46726 4.24265
lowerneck -20.4906 -5.82524 -13.8576
upperneck 18.2345 -6.6893 12.573
head 10.1164 -2.68314 5.78408
lclavicle 2.4406e-14 -1.75639e-14 0
lhumerus -29.3493 -5.9831 86.6965
lradius 23.7242 0 0
lwrist -7.75046 0 0
lhand -8.04692 -21.5191 0
lfingers 7.12502 0 0
lthumb 17.8592 7.61752 0
rclavicle 2.4406e-14 -1.75639e-14 0
rhumerus -47.9291 6.32068 -83.3809
rradius 28.493 0 0
rwrist -15.8664 0 0
rhand -29.5395 -22.4242 0
rfingers 7.12502 0 0
rthumb -2.87287 -52.3896 0
131
root 8.89514 16.2753 -18.6595 5.51833 7.41548 2.74718
lfemur 16.4101 5.6604 -19.0138
ltibia 27.1045 0 0
lfoot 4.41733 2.71373 0
ltoes -4.02081 0 0
rfemur -42.3549 2.54981 16.3606
rtibia 42.0055 0 0
rfoot -12.5835 -5.26693 0
rtoes -14.7389 0 0
lowerback -6.27893 -3.76983 -3.31295
upperback -1.23827 -4.8541 2.68406
thorax 2.6595 -2.46758 4.23741
lowerneck -20.4745 -5.85265 -13.8895
upperneck 18.1437 -6.7266 12.635
head 10.0909 -2.69634 5.80401
lclavicle 2.55943e-14 -1.80892e-14 0
lhumerus -29.7739 -5.44934 86.7303
lradius 23.302 0 0
lwrist -8.20221 0 0
lhand -7.85508 -21.4076 0
lfingers 7.12502 0 0
lthumb 18.044 7.71464 0
rclavicle 2.55943e-14 -1.80892e-14 0
rhumerus -47.942 6.22341 -83.2608
rradius 28.3996 0 0
rwrist -15.7972 0 0
rhand -29.565 -22.4311 0
rfingers 7.12502 0 0
rthumb -2.89744 -52.3961 0
132
root 8.86884 16.2729 -18.5011 5.60154 7.5923 2.65633
lfemur 16.384 5.78882 -18.6897
ltibia 27.4693 0 0
lfoot 4.90482 2.6881 0
ltoes -4.15968 0 0
rfemur -42.2173 2.47218 16.543
rtibia 41.8718 0 0
rfoot -12.3856 -5.10158 0
rtoes -14.6288 0 0
lowerback -6.241 -3.76566 -3.2442
upperback -1.26275 -4.85472 2.71391
thorax 2.61228 -2.4661 4.23144
lowerneck -20.4566 -5.87986 -13.9209
upperneck 18.053 -6.76396 12.6971
head 10.0652 -2.70963 5.82388
lclavicle 2.67382e-14 -1.85991e-14 0
lhumerus -30.1998 -4.92878 86.7682
lradius 22.8907 0 0
lwrist -8.63578 0 0
lhand -7.6696 -21.2998 0
lfingers 7.12502 0 0
lthumb 18.2226 7.80854 0
rclavicle 2.67382e-14 -1.85991e-14 0
rhumerus -47.9485 6.13057 -83.142
rradius 28.3199 0 0
rwrist -15.735 0 0
rhand -29.5919 -22.4418 0
rfingers 7.12502 0 0
rthumb -2.92341 -52.4063 0
133
root 8.84257 16.2705 -18.3428 5.68376 7.76265 2.56392
lfemur 16.3295 5.91247 -18.3712
ltibia 27.8256 0 0
lfoot 5.37225 2.66688 0
ltoes -4.30115 0 0
rfemur -42.061 2.39746 16.7285
rtibia 41.7266 0 0
rfoot -12.195 -4.93503 0
rtoes -14.5174 0 0
lowerback -6.20356 -3.7588 -3.17427
upperback -1.28648 -4.85182 2.74349
thorax 2.5659 -2.46288 4.22477
lowerneck -20.4369 -5.90682 -13.9519
upperneck 17.9627 -6.80133 12.759
head 10.0394 -2.72298 5.84365
lclavicle 2.78373e-14 -1.90933e-14 0
lhumerus -30.6264 -4.42174 86.8098
lradius 22.4906 0 0
lwrist -9.05114 0 0
lhand -7.49055 -21.1959 0
lfingers 7.12502 0 0
lthumb 18.3951 7.89919 0
rclavicle 2.78373e-14 -1.90933e-14 0
rhumerus -47.9488 6.04215 -83.0247
rradius 28.2537 0 0
rwrist -15.6797 0 0
rhand -29.6201 -22.4561 0
rfingers 7.12502 0 0
rthumb -2.95069 -52.42 0
134
root 8.81639 16.2682 -18.1848 5.76491 7.92649 2.47013
lfemur 16.2476 6.03131 -18.0586
ltibia 28.173 0 0
lfoot 5.81957 2.64996 0
ltoes -4.44494 0 0
rfemur -41.8869 2.32567 16.9168
rtibia 41.5706 0 0
rfoot -12.0115 -4.76758 0
rtoes -14.4051 0 0
lowerback -6.16663 -3.74936 -3.10332
upperback -1.30943 -4.84552 2.77278
thorax 2.52039 -2.45797 4.21744
lowerneck -20.4157 -5.93351 -13.9825
upperneck 17.8728 -6.83864 12.8208
head 10.0133 -2.73637 5.86331
lclavicle 2.88915e-14 -1.95717e-14 0
lhumerus -31.053 -3.92854 86.8551
lradius 22.1018 0 0
lwrist -9.44825 0 0
lhand -7.31798 -21.0957 0
lfingers 7.12502 0 0
lthumb 18.5613 7.98656 0
rclavicle 2.88915e-14 -1.95717e-14 0
rhumerus -47.9431 5.95814 -82.9088
rradius 28.2005 0 0
rwrist -15.6311 0 0
rhand -29.6497 -22.4739 0
rfingers 7.12502 0 0
rthumb -2.97919 -52.4372 0
135
root 8.79036 16.2659 -18.0271 5.84488 8.08375 2.37516
lfemur 16.1393 6.14533 -17.7522
ltibia 28.5114 0 0
lfoot 6.24675 2.63725 0
ltoes -4.59075 0 0
rfemur -41.6958 2.25684 17.1075
rtibia 41.4043 0 0
rfoot -11.8354 -4.59952 0
rtoes -14.2921 0 0
lowerback -6.13028 -3.73743 -3.03148
upperback -1.3316 -4.83593 2.80172
thorax 2.4758 -2.45144 4.20947
lowerneck -20.393 -5.9599 -14.0125
upperneck 17.7835 -6.87585 12.8822
head 9.98721 -2.74979 5.88282
lclavicle 2.99006e-14 -2.00339e-14 0
lhumerus -31.479 -3.44951 86.9038
lradius 21.7246 0 0
lwrist -9.82708 0 0
lhand -7.15196 -20.9993 0
lfingers 7.12502 0 0
lthumb 18.7212 8.07063 0
rclavicle 2.99006e-14 -2.00339e-14 0
rhumerus -47.9316 5.87852 -82.7947
rradius 28.16 0 0
rwrist -15.5892 0 0
rhand -29.6804 -22.495 0
rfingers 7.12502 0 0
rthumb -3.00885 -52.4577 0
136
root 8.76454 16.2638 -17.8698 5.9236 8.23441 2.27918
lfemur 16.0056 6.25448 -17.4523
ltibia 28.8405 0 0
lfoot 6.65371 2.62862 0
ltoes -4.73828 0 0
rfemur -41.4885 2.19098 17.3001
rtibia 41.2283 0 0
rfoot -11.6667 -4.43112 0
rtoes -14.1785 0 0
lowerback -6.09452 -3.7231 -2.95888
upperback -1.35298 -4.82317 2.8303
thorax 2.43218 -2.44334 4.20091
lowerneck -20.3688 -5.98594 -14.0419
upperneck 17.6949 -6.9129 12.9433
head 9.96103 -2.7632 5.90217
lclavicle 3.08644e-14 -2.04798e-14 0
lhumerus -31.9038 -2.98495 86.9557
lradius 21.3593 0 0
lwrist -10.1876 0 0
lhand -6.99255 -20.9068 0
lfingers 7.12502 0 0
lthumb 18.8747 8.15135 0
rclavicle 3.08644e-14 -2.04798e-14 0
rhumerus -47.9145 5.80329 -82.6823
rradius 28.132 0 0
rwrist -15.5537 0 0
rhand -29.7122 -22.5193 0
rfingers 7.12502 0 0
rthumb -3.03957 -52.4814 0
